<?xml version="1.0" encoding="UTF-8"?>
<svg id="b" data-name="Layer 2" xmlns="http://www.w3.org/2000/svg" width="470.074" height="55.45" viewBox="0 0 470.074 55.45">
  <g id="c" data-name="Layer 1">
    <g id="d" data-name="Logo wo tagline">
      <g>
        <path d="M14.544,13.845c-.17,0-.309.137-.308.308.018,2.452.285,6.494,2.903,9.224,2.73,2.617,6.772,2.885,9.224,2.903.17,0,.309-.138.308-.308-.018-2.452-.285-6.494-2.903-9.224-2.73-2.618-6.772-2.885-9.224-2.903" fill="#fff"/>
        <path d="M.325,28.098c-.17,0-.309.137-.308.308.018,2.452.285,6.494,2.903,9.224,2.73,2.617,6.772,2.885,9.224,2.903.17,0,.309-.138.308-.308-.018-2.452-.285-6.494-2.903-9.224-2.73-2.618-6.772-2.885-9.224-2.903" fill="#fff"/>
        <path d="M.308,26.297c2.452-.018,6.494-.285,9.224-2.903,2.618-2.73,2.885-6.772,2.903-9.224.001-.17-.138-.309-.308-.308-2.452.018-6.494.286-9.224,2.903C.285,19.495.018,23.537,0,25.989c0,.171.138.309.308.308" fill="#fff"/>
        <path d="M54.426,28.057c-2.452.018-6.494.285-9.224,2.903-2.618,2.73-2.885,6.772-2.903,9.224,0,.17.138.309.308.308,2.452-.018,6.494-.286,9.224-2.903,2.618-2.73,2.885-6.772,2.903-9.224,0-.171-.138-.309-.308-.308" fill="#fff"/>
        <path d="M54.409,26.255c.17,0,.309-.137.308-.308-.018-2.452-.285-6.494-2.903-9.224-2.73-2.617-6.772-2.885-9.224-2.903-.17,0-.309.138-.308.308.018,2.452.285,6.494,2.903,9.224,2.73,2.618,6.772,2.885,9.224,2.903" fill="#fff"/>
        <path d="M40.201,13.838c-2.452.018-6.494.285-9.224,2.903-2.618,2.73-2.885,6.772-2.903,9.224-.001.17.138.309.308.308,2.452-.018,6.494-.286,9.224-2.903,2.617-2.73,2.885-6.772,2.903-9.224,0-.171-.138-.309-.308-.308" fill="#fff"/>
        <path d="M40.194,12.435c.17,0,.309-.137.308-.308-.018-2.452-.286-6.493-2.903-9.224C34.869.286,30.827.018,28.375,0c-.17,0-.309.138-.308.308.018,2.452.285,6.494,2.903,9.224,2.73,2.618,6.772,2.885,9.224,2.903" fill="#fff"/>
        <path d="M14.537,12.442c2.452-.018,6.494-.285,9.224-2.903,2.618-2.73,2.885-6.772,2.903-9.224,0-.17-.138-.309-.308-.308-2.452.018-6.494.286-9.224,2.903-2.618,2.731-2.885,6.772-2.903,9.224-.001.171.138.309.308.308" fill="#fff"/>
        <path d="M38.751,50.437c-4.584,0-8.301-3.712-8.311-8.293v-5.148c.165.209.338.413.526.61,2.731,2.617,6.772,2.884,9.225,2.902.17,0,.309-.137.307-.308-.017-2.452-.285-6.493-2.902-9.224-2.849-2.73-7.124-2.903-9.533-2.903l-1.374.007c-2.409,0-6.684.173-9.533,2.903-2.617,2.731-2.885,6.772-2.902,9.224-.002.171.137.309.307.308,2.453-.017,6.494-.285,9.225-2.902.183-.191.352-.389.513-.592v5.111c-.004,4.587-3.724,8.305-8.312,8.305h-2.701v4.274h28.167v-4.274h-2.702Z" fill="#fff"/>
        <path d="M78.618,14.657l-15.404,40.028h8.986l2.859-7.877h17.447l2.859,7.877h9.395l-15.405-40.028h-10.737ZM77.568,39.806l3.559-9.861c.194-.584.447-1.332.759-2.247.311-.913.622-1.867.934-2.859.31-.992.563-1.857.758-2.597h.35c.195.584.399,1.236.613,1.955.213.72.437,1.45.671,2.188.233.74.457,1.411.671,2.014.213.603.398,1.118.554,1.546l3.56,9.861h-12.429Z" fill="#fff"/>
        <path d="M166.298,35.664c-1.148-.855-2.461-1.439-3.939-1.751v-.233c1.244-.389,2.363-.992,3.355-1.809.992-.817,1.78-1.847,2.363-3.093.584-1.244.875-2.664.875-4.259,0-1.984-.486-3.715-1.458-5.194-.973-1.477-2.305-2.625-3.997-3.442-1.693-.817-3.589-1.226-5.689-1.226h-22.874v40.029h22.932c2.255,0,4.298-.409,6.127-1.225,1.828-.817,3.297-2.043,4.405-3.676,1.109-1.634,1.663-3.656,1.663-6.069,0-1.828-.341-3.413-1.021-4.756-.681-1.342-1.595-2.44-2.742-3.296M143.628,21.601h11.846c1.361,0,2.459.389,3.296,1.167.836.779,1.255,1.926,1.255,3.443,0,.895-.185,1.683-.555,2.363-.37.681-.914,1.225-1.633,1.634-.721.408-1.605.613-2.655.613h-11.554v-9.22ZM159.704,46.342c-.915.817-2.092,1.225-3.53,1.225h-12.546v-9.978h12.137c1.206,0,2.198.204,2.976.613.778.409,1.361.983,1.751,1.721.388.74.583,1.615.583,2.626,0,1.712-.458,2.976-1.371,3.793" fill="#fff"/>
        <path d="M197.339,25.015c-2.315-1.147-5.184-1.722-8.606-1.722-3.346,0-6.186.575-8.52,1.722-2.334,1.148-4.104,2.898-5.31,5.251-1.206,2.354-1.809,5.379-1.809,9.074,0,3.618.603,6.623,1.809,9.015,1.206,2.392,2.976,4.163,5.31,5.31,2.334,1.147,5.174,1.721,8.52,1.721,3.422,0,6.291-.574,8.606-1.721,2.314-1.147,4.075-2.918,5.281-5.31,1.205-2.392,1.809-5.397,1.809-9.015,0-3.695-.604-6.72-1.809-9.074-1.206-2.353-2.967-4.103-5.281-5.251M196.143,40.04c0,1.984-.253,3.657-.758,5.018-.506,1.362-1.294,2.374-2.364,3.035-1.07.661-2.5.991-4.288.991-1.751,0-3.162-.33-4.231-.991-1.07-.661-1.858-1.673-2.363-3.035-.506-1.361-.759-3.034-.759-5.018v-1.4c0-1.984.253-3.656.759-5.019.505-1.361,1.293-2.382,2.363-3.063,1.069-.68,2.48-1.021,4.231-1.021,1.788,0,3.218.341,4.288,1.021,1.07.681,1.858,1.702,2.364,3.063.505,1.363.758,3.035.758,5.019v1.4Z" fill="#fff"/>
        <path d="M231.707,25.015c-2.315-1.147-5.184-1.722-8.607-1.722-3.346,0-6.185.575-8.519,1.722-2.334,1.148-4.104,2.898-5.31,5.251-1.206,2.354-1.809,5.379-1.809,9.074,0,3.618.603,6.623,1.809,9.015,1.206,2.392,2.976,4.163,5.31,5.31,2.334,1.147,5.173,1.721,8.519,1.721,3.423,0,6.292-.574,8.607-1.721,2.314-1.147,4.075-2.918,5.281-5.31,1.205-2.392,1.809-5.397,1.809-9.015,0-3.695-.604-6.72-1.809-9.074-1.206-2.353-2.967-4.103-5.281-5.251M230.511,40.04c0,1.984-.254,3.657-.759,5.018-.506,1.362-1.294,2.374-2.363,3.035-1.07.661-2.5.991-4.289.991-1.75,0-3.161-.33-4.23-.991-1.071-.661-1.858-1.673-2.363-3.035-.506-1.361-.759-3.034-.759-5.018v-1.4c0-1.984.253-3.656.759-5.019.505-1.361,1.292-2.382,2.363-3.063,1.069-.68,2.48-1.021,4.23-1.021,1.789,0,3.219.341,4.289,1.021,1.069.681,1.857,1.702,2.363,3.063.505,1.363.759,3.035.759,5.019v1.4Z" fill="#fff"/>
        <path d="M282.918,24.343c-1.421-.7-3.103-1.05-5.047-1.05-1.362,0-2.646.195-3.851.583-1.207.39-2.276.954-3.21,1.692-.933.74-1.731,1.615-2.392,2.626h-.409c-.778-1.711-1.877-2.956-3.297-3.734-1.42-.778-3.102-1.167-5.047-1.167-1.323,0-2.558.195-3.705.583-1.148.39-2.179.954-3.093,1.692-.914.74-1.702,1.615-2.363,2.626h-.408l-.642-4.201h-6.711v30.692h8.111v-17.913c0-1.322.243-2.489.729-3.501.487-1.011,1.167-1.809,2.043-2.393.875-.583,1.838-.875,2.888-.875.7,0,1.332.098,1.897.292.563.195,1.04.496,1.429.904.389.409.69.954.905,1.634.213.681.32,1.508.32,2.48v19.372h8.111v-17.913c0-1.322.243-2.489.73-3.501.486-1.011,1.157-1.809,2.013-2.393.855-.583,1.828-.875,2.917-.875.661,0,1.284.098,1.868.292.583.195,1.069.496,1.458.904.389.409.691.954.905,1.634.213.681.321,1.508.321,2.48v19.372h8.111v-20.831c0-2.489-.409-4.522-1.226-6.097-.817-1.576-1.936-2.714-3.355-3.414" fill="#fff"/>
        <rect x="293.566" y="12.498" width="8.111" height="7.002" fill="#fff"/>
        <rect x="293.566" y="23.993" width="8.111" height="30.693" fill="#fff"/>
        <polygon points="113.573 14.657 107.044 14.657 107.044 21.601 113.573 21.601 113.573 47.567 107.044 47.567 107.044 54.686 113.573 54.686 122.267 54.686 128.797 54.686 128.797 47.567 122.267 47.567 122.267 21.601 128.797 21.601 128.797 14.657 122.267 14.657 113.573 14.657" fill="#fff"/>
      </g>
    </g>
    <g>
      <path d="M318.81,54.754V14.966h20.938c2.706,0,4.959.493,6.757,1.479,1.798.986,3.141,2.359,4.031,4.118.889,1.76,1.334,3.78,1.334,6.061,0,2.746-.619,5.104-1.856,7.076-1.238,1.972-2.939,3.384-5.104,4.234l8.352,16.82h-6.032l-7.772-15.834h-15.138v15.834h-5.51ZM324.32,34.222h14.906c2.204,0,3.934-.676,5.191-2.03,1.256-1.353,1.885-3.209,1.885-5.568,0-1.469-.271-2.706-.812-3.712-.542-1.005-1.334-1.788-2.378-2.349-1.044-.56-2.34-.841-3.886-.841h-14.906v14.5Z" fill="#fff"/>
      <path d="M367.066,55.45c-1.122,0-2.243-.136-3.364-.406-1.122-.271-2.166-.715-3.132-1.334-.967-.618-1.74-1.479-2.32-2.581-.58-1.102-.87-2.484-.87-4.147,0-2.088.502-3.808,1.508-5.162,1.005-1.353,2.407-2.407,4.205-3.161,1.798-.754,3.934-1.276,6.409-1.566,2.474-.29,5.162-.435,8.062-.435v-3.48c0-1.121-.194-2.088-.58-2.9-.387-.812-1.073-1.44-2.059-1.885-.986-.444-2.388-.667-4.205-.667-1.74,0-3.123.223-4.147.667-1.025.445-1.74,1.015-2.146,1.711-.406.696-.609,1.47-.609,2.32v.87h-4.93c-.039-.193-.058-.386-.058-.58v-.696c0-1.856.512-3.412,1.537-4.669,1.024-1.256,2.465-2.204,4.321-2.842,1.856-.638,3.982-.957,6.38-.957,2.552,0,4.688.368,6.409,1.102,1.72.735,3.016,1.779,3.886,3.132.87,1.354,1.305,2.978,1.305,4.872v16.53c0,.735.174,1.247.522,1.537.348.29.773.435,1.276.435h2.262v3.364c-.542.232-1.141.435-1.798.609-.658.174-1.412.261-2.262.261-1.006,0-1.837-.203-2.494-.609-.658-.406-1.16-.966-1.508-1.682-.348-.715-.58-1.517-.696-2.407h-.406c-.696.967-1.576,1.808-2.639,2.523-1.064.716-2.253,1.267-3.567,1.653-1.315.386-2.746.58-4.292.58ZM368.342,51.158c1.237,0,2.407-.193,3.509-.58,1.102-.386,2.078-.938,2.929-1.653.85-.715,1.527-1.575,2.03-2.581s.754-2.107.754-3.306v-2.552c-3.132,0-5.8.174-8.004.522-2.204.348-3.896.967-5.075,1.856-1.18.89-1.769,2.146-1.769,3.77,0,1.044.232,1.895.696,2.552.464.658,1.121,1.151,1.972,1.479.85.329,1.836.493,2.958.493Z" fill="#fff"/>
      <path d="M401.402,55.45c-2.514,0-4.669-.561-6.467-1.682s-3.19-2.871-4.176-5.249c-.986-2.378-1.479-5.461-1.479-9.251,0-3.596.502-6.554,1.508-8.874,1.005-2.32,2.397-4.04,4.176-5.162,1.778-1.121,3.847-1.682,6.206-1.682,1.353,0,2.61.155,3.77.464,1.16.31,2.194.793,3.103,1.45.908.658,1.711,1.528,2.407,2.61h.348v-15.254h5.104v41.934h-4.118l-.464-4.35h-.406c-1.044,1.702-2.398,2.968-4.06,3.799-1.663.831-3.48,1.247-5.452,1.247ZM402.62,50.984c1.933,0,3.499-.425,4.698-1.276,1.198-.85,2.078-2.088,2.639-3.712.56-1.624.841-3.634.841-6.032v-.928c0-2.088-.213-3.847-.638-5.278-.426-1.43-1.006-2.571-1.74-3.422-.735-.85-1.586-1.45-2.552-1.798-.967-.348-1.992-.522-3.074-.522-1.895,0-3.442.377-4.64,1.131-1.199.754-2.088,1.934-2.668,3.538-.58,1.605-.87,3.683-.87,6.235v1.218c0,2.63.309,4.747.928,6.351.618,1.605,1.517,2.755,2.697,3.451,1.179.696,2.639,1.044,4.379,1.044Z" fill="#fff"/>
      <path d="M431.562,55.45c-1.122,0-2.243-.136-3.364-.406-1.122-.271-2.166-.715-3.132-1.334-.967-.618-1.74-1.479-2.32-2.581-.58-1.102-.87-2.484-.87-4.147,0-2.088.502-3.808,1.508-5.162,1.005-1.353,2.407-2.407,4.205-3.161,1.798-.754,3.934-1.276,6.409-1.566,2.474-.29,5.162-.435,8.062-.435v-3.48c0-1.121-.194-2.088-.58-2.9-.387-.812-1.073-1.44-2.059-1.885-.986-.444-2.388-.667-4.205-.667-1.74,0-3.123.223-4.147.667-1.025.445-1.74,1.015-2.146,1.711-.406.696-.609,1.47-.609,2.32v.87h-4.93c-.039-.193-.058-.386-.058-.58v-.696c0-1.856.512-3.412,1.537-4.669,1.024-1.256,2.465-2.204,4.321-2.842,1.856-.638,3.982-.957,6.38-.957,2.552,0,4.688.368,6.409,1.102,1.72.735,3.016,1.779,3.886,3.132.87,1.354,1.305,2.978,1.305,4.872v16.53c0,.735.174,1.247.522,1.537.348.29.773.435,1.276.435h2.262v3.364c-.542.232-1.141.435-1.798.609-.658.174-1.412.261-2.262.261-1.006,0-1.837-.203-2.494-.609-.658-.406-1.16-.966-1.508-1.682-.348-.715-.58-1.517-.696-2.407h-.406c-.696.967-1.576,1.808-2.639,2.523-1.064.716-2.253,1.267-3.567,1.653-1.315.386-2.746.58-4.292.58ZM432.838,51.158c1.237,0,2.407-.193,3.509-.58,1.102-.386,2.078-.938,2.929-1.653.85-.715,1.527-1.575,2.03-2.581s.754-2.107.754-3.306v-2.552c-3.132,0-5.8.174-8.004.522-2.204.348-3.896.967-5.075,1.856-1.18.89-1.769,2.146-1.769,3.77,0,1.044.232,1.895.696,2.552.464.658,1.121,1.151,1.972,1.479.85.329,1.836.493,2.958.493Z" fill="#fff"/>
      <path d="M455.516,54.754v-30.508h4.118l.464,5.046h.406c.309-.966.734-1.885,1.276-2.755.541-.87,1.276-1.585,2.204-2.146.928-.56,2.068-.841,3.422-.841.58,0,1.111.049,1.595.145.483.097.841.203,1.073.319v4.698h-1.914c-1.315,0-2.446.223-3.393.667-.948.445-1.731,1.073-2.349,1.885-.619.812-1.073,1.779-1.363,2.9-.29,1.122-.435,2.32-.435,3.596v16.994h-5.104Z" fill="#fff"/>
    </g>
  </g>
</svg>