<?xml version="1.0" encoding="UTF-8"?>
<svg id="b" data-name="Layer 2" xmlns="http://www.w3.org/2000/svg" width="70.402" height="70.402" viewBox="0 0 70.402 70.402">
  <g id="c" data-name="Layer 1">
    <circle cx="35.201" cy="35.201" r="35.201" fill="#00ff4e"/>
    <g>
      <path d="M36.596,34.403c-.017-2.036-.241-5.393-2.41-7.661-2.269-2.177-5.634-2.402-7.67-2.41l-.008-1.172c2.044-.008,5.401-.233,7.67-2.41,2.177-2.269,2.393-5.626,2.41-7.662h1.163c.017,2.036.241,5.385,2.418,7.653,2.269,2.177,5.626,2.401,7.662,2.418l.008,1.163c-2.036.009-5.401.233-7.67,2.41-2.169,2.269-2.393,5.626-2.41,7.67h-1.163Z"/>
      <path d="M22.537,47.982c-.017-2.036-.241-5.393-2.41-7.661-2.269-2.177-5.634-2.402-7.67-2.41l-.008-1.172c2.044-.008,5.401-.233,7.67-2.41,2.177-2.269,2.393-5.626,2.41-7.662h1.163c.017,2.036.241,5.385,2.418,7.653,2.269,2.177,5.626,2.401,7.662,2.418l.008,1.163c-2.036.009-5.401.233-7.67,2.41-2.169,2.269-2.393,5.626-2.41,7.67h-1.163Z"/>
      <path d="M43.101,53.677c-.017-2.036-.241-5.393-2.41-7.661-2.269-2.177-5.634-2.402-7.67-2.41l-.008-1.172c2.044-.008,5.401-.233,7.67-2.41,2.177-2.269,2.393-5.626,2.41-7.662h1.163c.017,2.036.241,5.385,2.418,7.653,2.269,2.177,5.626,2.401,7.662,2.418l.008,1.163c-2.036.009-5.401.233-7.67,2.41-2.169,2.269-2.393,5.626-2.41,7.67h-1.163Z"/>
    </g>
  </g>
</svg>